<svg xmlns="http://www.w3.org/2000/svg" version="1.1" xmlns:xlink="http://www.w3.org/1999/xlink" xmlns:svgjs="http://svgjs.dev/svgjs" width="1000" height="1000" viewBox="0 0 1000 1000"><rect width="1000" height="1000" fill="#000000"></rect><g transform="matrix(0.7,0,0,0.7,149.57575757575756,401.3629288425283)"><svg viewBox="0 0 396 112" data-background-color="#ffffff" preserveAspectRatio="xMidYMid meet" height="282" width="1000" xmlns="http://www.w3.org/2000/svg" xmlns:xlink="http://www.w3.org/1999/xlink"><defs></defs><g id="tight-bounds" transform="matrix(1,0,0,1,0.2400000000000091,-0.03570430781746836)"><svg viewBox="0 0 395.52 112.07140861563495" height="112.07140861563495" width="395.52"><g><svg viewBox="0 0 578.7745744402803 163.9969706422858" height="112.07140861563495" width="395.52"><g transform="matrix(1,0,0,1,0,22.665283207436033)"><svg viewBox="0 0 395.52 118.66640422741372" height="118.66640422741372" width="395.52"><g><svg viewBox="0 0 395.52 118.66640422741372" height="118.66640422741372" width="395.52"><g><svg viewBox="0 0 395.52 81.57374658158614" height="81.57374658158614" width="395.52"><g transform="matrix(1,0,0,1,0,0)"><svg width="395.52" viewBox="0 -36.150001525878906 219.3800048828125 45.25" height="81.57374658158614" data-palette-color="#7b7878"><path d="M0 0L11.05-34.3 18.5-34.3 29.55 0 23 0 20.9-6.75 8.25-6.75 6.2 0 0 0ZM10-12.45L19.15-12.45 15.7-23.9Q15.2-25.6 14.7-28.55L14.7-28.55 14.5-28.55Q14-25.4 13.5-23.9L13.5-23.9 10-12.45ZM32.35 8.65L32.35-26.3 37.35-26.3 37.95-23.05 38.2-23.05Q39.15-24.95 40.7-25.93 42.25-26.9 44.15-26.9L44.15-26.9Q48.15-26.9 50.37-23.48 52.6-20.05 52.6-13.1L52.6-13.1Q52.6-6.25 50.37-2.83 48.15 0.6 44.45 0.6L44.45 0.6Q42.45 0.6 40.87-0.28 39.3-1.15 38.6-2.7L38.6-2.7 38.35-2.7 38.35 8.65 32.35 8.65ZM42.35-4.85Q44.45-4.85 45.4-6.68 46.35-8.5 46.35-12.2L46.35-12.2 46.35-14.1Q46.35-17.8 45.4-19.63 44.45-21.45 42.35-21.45L42.35-21.45Q40.25-21.45 39.3-19.63 38.35-17.8 38.35-14.1L38.35-14.1 38.35-12.3Q38.35-8.6 39.3-6.73 40.25-4.85 42.35-4.85L42.35-4.85ZM57.4 8.65L57.4-26.3 62.4-26.3 63-23.05 63.25-23.05Q64.2-24.95 65.75-25.93 67.3-26.9 69.2-26.9L69.2-26.9Q73.2-26.9 75.42-23.48 77.65-20.05 77.65-13.1L77.65-13.1Q77.65-6.25 75.42-2.83 73.2 0.6 69.5 0.6L69.5 0.6Q67.5 0.6 65.92-0.28 64.34-1.15 63.65-2.7L63.65-2.7 63.4-2.7 63.4 8.65 57.4 8.65ZM67.4-4.85Q69.5-4.85 70.45-6.68 71.4-8.5 71.4-12.2L71.4-12.2 71.4-14.1Q71.4-17.8 70.45-19.63 69.5-21.45 67.4-21.45L67.4-21.45Q65.3-21.45 64.34-19.63 63.4-17.8 63.4-14.1L63.4-14.1 63.4-12.3Q63.4-8.6 64.34-6.73 65.3-4.85 67.4-4.85L67.4-4.85ZM82.44 0L82.44-26.3 87.44-26.3 88.14-22.45 88.44-22.45Q89.09-24.45 90.14-25.68 91.19-26.9 92.99-26.9L92.99-26.9Q94.44-26.9 95.49-26.5L95.49-26.5 95.49-20.7 93.34-20.7Q91.14-20.7 89.79-19.3 88.44-17.9 88.44-14.65L88.44-14.65 88.44 0 82.44 0ZM102.94 0.6Q100.49 0.6 98.42-1.07 96.34-2.75 96.34-6.8L96.34-6.8Q96.34-11.8 99.74-13.9 103.14-16 109.39-16L109.39-16 109.39-18.75Q109.39-20.3 108.82-21.15 108.24-22 106.64-22L106.64-22Q104.99-22 104.24-21.18 103.49-20.35 103.49-19.25L103.49-19.25 103.49-18.5 97.64-18.5Q97.59-18.8 97.59-19.6L97.59-19.6Q97.59-22.9 100.02-24.9 102.44-26.9 106.49-26.9L106.49-26.9Q110.99-26.9 113.22-24.9 115.44-22.9 115.44-19.15L115.44-19.15 115.44-6.2Q115.44-5.3 115.84-4.88 116.24-4.45 116.84-4.45L116.84-4.45 118.04-4.45 118.04-0.2Q116.54 0.6 114.49 0.6L114.49 0.6Q112.74 0.6 111.52-0.33 110.29-1.25 109.84-2.85L109.84-2.85 109.59-2.85Q108.34-1.1 106.87-0.25 105.39 0.6 102.94 0.6L102.94 0.6ZM105.44-4.4Q107.44-4.4 108.42-6 109.39-7.6 109.39-10.15L109.39-10.15 109.39-11.65Q106.34-11.65 104.42-10.68 102.49-9.7 102.49-7.35L102.49-7.35Q102.49-5.95 103.22-5.18 103.94-4.4 105.44-4.4L105.44-4.4ZM121.14 0L121.14-26.3 127.14-26.3 127.14 0 121.14 0ZM121.09-30.4L121.09-36.15 127.14-36.15 127.14-30.4 121.09-30.4ZM141.03 0.6Q136.53 0.6 134.01-1.68 131.49-3.95 131.49-7.75L131.49-7.75 131.53-8.35 137.64-8.35 137.64-8Q137.69-6.05 138.74-5.18 139.78-4.3 141.24-4.3L141.24-4.3Q142.64-4.3 143.69-4.98 144.74-5.65 144.74-7.15L144.74-7.15Q144.74-8.75 143.53-9.47 142.34-10.2 139.74-10.9L139.74-10.9Q137.24-11.6 135.69-12.3 134.14-13 133.01-14.6 131.89-16.2 131.89-18.9L131.89-18.9Q131.89-22.75 134.51-24.83 137.14-26.9 141.28-26.9L141.28-26.9Q145.14-26.9 147.66-24.98 150.19-23.05 150.19-19.75L150.19-19.75 150.14-18.6 144.03-18.6 144.03-18.7Q143.99-22 141.09-22L141.09-22Q139.69-22 138.84-21.3 137.99-20.6 137.99-19.4L137.99-19.4Q137.99-18 139.14-17.38 140.28-16.75 142.74-16.1L142.74-16.1Q145.28-15.45 146.89-14.73 148.49-14 149.66-12.38 150.84-10.75 150.84-7.9L150.84-7.9Q150.84 0.6 141.03 0.6L141.03 0.6ZM164.48 0.6Q159.33 0.6 156.76-2.78 154.18-6.15 154.18-13.15L154.18-13.15Q154.18-26.9 164.28-26.9L164.28-26.9Q169.08-26.9 171.43-23.55 173.78-20.2 173.78-13.15L173.78-13.15 173.78-11.65 160.43-11.65Q160.48-7.95 161.41-6.13 162.33-4.3 164.48-4.3L164.48-4.3Q166.03-4.3 166.93-5.63 167.83-6.95 167.83-9.3L167.83-9.3 173.78-9.3Q173.78-4.4 171.23-1.9 168.68 0.6 164.48 0.6L164.48 0.6ZM160.48-16L167.48-16Q167.48-22 164.28-22L164.28-22Q162.43-22 161.53-20.48 160.63-18.95 160.48-16L160.48-16ZM181.53 9.1Q179.98 9.1 178.81 8.93 177.63 8.75 177.63 8.65L177.63 8.65 177.63 4.05 180.33 4.05Q181.68 4.05 182.78 3.05 183.88 2.05 184.38 0L184.38 0 175.63-26.3 181.98-26.3 185.93-13.95Q186.53-12.05 187.33-7.1L187.33-7.1 187.53-7.1Q188.23-11.75 188.78-13.9L188.78-13.9 192.03-26.3 198.03-26.3 190.83-1.35Q189.43 3.5 187.23 6.3 185.03 9.1 181.53 9.1L181.53 9.1ZM210.08 0.6Q204.93 0.6 202.35-2.78 199.78-6.15 199.78-13.15L199.78-13.15Q199.78-26.9 209.88-26.9L209.88-26.9Q214.68-26.9 217.03-23.55 219.38-20.2 219.38-13.15L219.38-13.15 219.38-11.65 206.03-11.65Q206.08-7.95 207-6.13 207.93-4.3 210.08-4.3L210.08-4.3Q211.63-4.3 212.53-5.63 213.43-6.95 213.43-9.3L213.43-9.3 219.38-9.3Q219.38-4.4 216.83-1.9 214.28 0.6 210.08 0.6L210.08 0.6ZM206.08-16L213.08-16Q213.08-22 209.88-22L209.88-22Q208.03-22 207.13-20.48 206.23-18.95 206.08-16L206.08-16Z" opacity="1" transform="matrix(1,0,0,1,0,0)" fill="#ffffff" class="undefined-text-0" data-fill-palette-color="primary" id="text-0"></path></svg></g></svg></g><g transform="matrix(1,0,0,1,163.310208,100.83135037958067)"><svg viewBox="0 0 232.209792 17.835053847833063" height="17.835053847833063" width="232.209792"><g transform="matrix(1,0,0,1,0,0)"><svg width="232.209792" viewBox="5.25 -37.849998474121094 622.9400024414062 47.849998474121094" height="17.835053847833063" data-palette-color="#0074d9"><path d="M18.9-35Q25.7-35 29.6-31.75 33.5-28.5 33.5-22.8L33.5-22.8Q33.5-17.1 29.6-13.85 25.7-10.6 18.9-10.6L18.9-10.6 10.25-10.6 10.25 0 5.25 0 5.25-35 18.9-35ZM18.75-14.95Q23.5-14.95 26-16.98 28.5-19 28.5-22.8L28.5-22.8Q28.5-26.6 26-28.63 23.5-30.65 18.75-30.65L18.75-30.65 10.25-30.65 10.25-14.95 18.75-14.95ZM40.65 0L40.65-37.1 45.45-37.1 45.45 0 40.65 0ZM74.5-26.5L79.3-26.5 79.3 0 74.75 0 74.75-4Q73.3-1.95 70.92-0.83 68.55 0.3 65.75 0.3L65.75 0.3Q60.45 0.3 57.4-2.63 54.35-5.55 54.35-11.25L54.35-11.25 54.35-26.5 59.15-26.5 59.15-11.8Q59.15-7.95 61-5.98 62.85-4 66.3-4L66.3-4Q70.1-4 72.3-6.3 74.5-8.6 74.5-12.8L74.5-12.8 74.5-26.5ZM109.24-26.5L113.79-26.5 113.79-3.6Q113.79 3.35 110.34 6.68 106.89 10 100.04 10L100.04 10Q96.29 10 92.89 8.97 89.49 7.95 87.39 6.05L87.39 6.05 89.69 2.35Q91.54 3.95 94.27 4.88 96.99 5.8 99.89 5.8L99.89 5.8Q104.54 5.8 106.77 3.6 108.99 1.4 108.99-3.1L108.99-3.1 108.99-5.2Q107.29-3.15 104.82-2.13 102.34-1.1 99.44-1.1L99.44-1.1Q95.64-1.1 92.57-2.73 89.49-4.35 87.74-7.28 85.99-10.2 85.99-13.95L85.99-13.95Q85.99-17.7 87.74-20.63 89.49-23.55 92.57-25.15 95.64-26.75 99.44-26.75L99.44-26.75Q102.44-26.75 105.02-25.65 107.59-24.55 109.24-22.4L109.24-22.4 109.24-26.5ZM99.99-5.3Q102.59-5.3 104.67-6.4 106.74-7.5 107.92-9.47 109.09-11.45 109.09-13.95L109.09-13.95Q109.09-17.8 106.54-20.18 103.99-22.55 99.99-22.55L99.99-22.55Q95.94-22.55 93.39-20.18 90.84-17.8 90.84-13.95L90.84-13.95Q90.84-11.45 92.02-9.47 93.19-7.5 95.27-6.4 97.34-5.3 99.99-5.3L99.99-5.3ZM121.24-11.65L121.24-15.8 134.69-15.8 134.69-11.65 121.24-11.65ZM142.09 0L142.09-26.5 146.89-26.5 146.89 0 142.09 0ZM144.49-31.6Q143.09-31.6 142.16-32.5 141.24-33.4 141.24-34.7L141.24-34.7Q141.24-36 142.16-36.93 143.09-37.85 144.49-37.85L144.49-37.85Q145.89-37.85 146.81-36.98 147.74-36.1 147.74-34.8L147.74-34.8Q147.74-33.45 146.81-32.52 145.89-31.6 144.49-31.6L144.49-31.6ZM170.19-26.75Q175.24-26.75 178.21-23.83 181.19-20.9 181.19-15.25L181.19-15.25 181.19 0 176.39 0 176.39-14.7Q176.39-18.55 174.54-20.5 172.69-22.45 169.24-22.45L169.24-22.45Q165.34-22.45 163.09-20.18 160.84-17.9 160.84-13.65L160.84-13.65 160.84 0 156.04 0 156.04-26.5 160.64-26.5 160.64-22.5Q162.09-24.55 164.56-25.65 167.04-26.75 170.19-26.75L170.19-26.75ZM230.38 0L226.53-8.75 207.93-8.75 204.08 0 198.93 0 214.78-35 219.73-35 235.63 0 230.38 0ZM209.68-12.75L224.78-12.75 217.23-29.9 209.68-12.75ZM240.83 0L240.83-35 245.83-35 245.83 0 240.83 0ZM278.77-33.45Q274.47-33.45 274.47-28.8L274.47-28.8 274.47-26.5 282.17-26.5 282.17-22.55 274.57-22.55 274.57 0 269.77 0 269.77-22.55 265.27-22.55 265.27-26.5 269.77-26.5 269.77-28.85Q269.77-32.8 272.07-35.1 274.37-37.4 278.52-37.4L278.52-37.4Q280.12-37.4 281.52-37 282.92-36.6 283.92-35.85L283.92-35.85 282.47-32.2Q280.82-33.45 278.77-33.45L278.77-33.45ZM297.67 0.3Q293.72 0.3 290.57-1.45 287.42-3.2 285.65-6.28 283.87-9.35 283.87-13.25L283.87-13.25Q283.87-17.15 285.65-20.23 287.42-23.3 290.57-25.03 293.72-26.75 297.67-26.75L297.67-26.75Q301.62-26.75 304.75-25.03 307.87-23.3 309.65-20.23 311.42-17.15 311.42-13.25L311.42-13.25Q311.42-9.35 309.65-6.28 307.87-3.2 304.75-1.45 301.62 0.3 297.67 0.3L297.67 0.3ZM297.67-3.9Q300.22-3.9 302.25-5.08 304.27-6.25 305.42-8.38 306.57-10.5 306.57-13.25L306.57-13.25Q306.57-16 305.42-18.13 304.27-20.25 302.25-21.4 300.22-22.55 297.67-22.55L297.67-22.55Q295.12-22.55 293.1-21.4 291.07-20.25 289.9-18.13 288.72-16 288.72-13.25L288.72-13.25Q288.72-10.5 289.9-8.38 291.07-6.25 293.1-5.08 295.12-3.9 297.67-3.9L297.67-3.9ZM322.67-22.05Q323.92-24.35 326.37-25.55 328.82-26.75 332.32-26.75L332.32-26.75 332.32-22.1Q331.92-22.15 331.22-22.15L331.22-22.15Q327.32-22.15 325.09-19.83 322.87-17.5 322.87-13.2L322.87-13.2 322.87 0 318.07 0 318.07-26.5 322.67-26.5 322.67-22.05ZM368.51 0.4Q363.21 0.4 358.96-1.93 354.71-4.25 352.29-8.35 349.86-12.45 349.86-17.5L349.86-17.5Q349.86-22.55 352.29-26.65 354.71-30.75 358.96-33.08 363.21-35.4 368.51-35.4L368.51-35.4Q373.76-35.4 378.01-33.08 382.26-30.75 384.66-26.68 387.06-22.6 387.06-17.5L387.06-17.5Q387.06-12.4 384.66-8.33 382.26-4.25 378.01-1.93 373.76 0.4 368.51 0.4L368.51 0.4ZM368.51-4.05Q372.36-4.05 375.44-5.8 378.51-7.55 380.29-10.63 382.06-13.7 382.06-17.5L382.06-17.5Q382.06-21.3 380.29-24.38 378.51-27.45 375.44-29.2 372.36-30.95 368.51-30.95L368.51-30.95Q364.66-30.95 361.54-29.2 358.41-27.45 356.64-24.38 354.86-21.3 354.86-17.5L354.86-17.5Q354.86-13.7 356.64-10.63 358.41-7.55 361.54-5.8 364.66-4.05 368.51-4.05L368.51-4.05ZM408.06-26.75Q411.91-26.75 414.96-25.05 418.01-23.35 419.74-20.3 421.46-17.25 421.46-13.25L421.46-13.25Q421.46-9.25 419.74-6.18 418.01-3.1 414.96-1.4 411.91 0.3 408.06 0.3L408.06 0.3Q405.21 0.3 402.84-0.8 400.46-1.9 398.81-4L398.81-4 398.81 9.7 394.01 9.7 394.01-26.5 398.61-26.5 398.61-22.3Q400.21-24.5 402.66-25.63 405.11-26.75 408.06-26.75L408.06-26.75ZM407.66-3.9Q410.21-3.9 412.24-5.08 414.26-6.25 415.44-8.38 416.61-10.5 416.61-13.25L416.61-13.25Q416.61-16 415.44-18.13 414.26-20.25 412.24-21.4 410.21-22.55 407.66-22.55L407.66-22.55Q405.16-22.55 403.14-21.38 401.11-20.2 399.94-18.1 398.76-16 398.76-13.25L398.76-13.25Q398.76-10.5 399.91-8.38 401.06-6.25 403.11-5.08 405.16-3.9 407.66-3.9L407.66-3.9ZM452.06-13.1Q452.06-12.55 451.96-11.65L451.96-11.65 430.46-11.65Q430.91-8.15 433.53-6.03 436.16-3.9 440.06-3.9L440.06-3.9Q444.81-3.9 447.71-7.1L447.71-7.1 450.36-4Q448.56-1.9 445.88-0.8 443.21 0.3 439.91 0.3L439.91 0.3Q435.71 0.3 432.46-1.43 429.21-3.15 427.43-6.25 425.66-9.35 425.66-13.25L425.66-13.25Q425.66-17.1 427.38-20.2 429.11-23.3 432.13-25.03 435.16-26.75 438.96-26.75L438.96-26.75Q442.76-26.75 445.73-25.03 448.71-23.3 450.38-20.2 452.06-17.1 452.06-13.1L452.06-13.1ZM438.96-22.7Q435.51-22.7 433.18-20.6 430.86-18.5 430.46-15.1L430.46-15.1 447.46-15.1Q447.06-18.45 444.73-20.58 442.41-22.7 438.96-22.7L438.96-22.7ZM463.31-22.05Q464.56-24.35 467.01-25.55 469.46-26.75 472.96-26.75L472.96-26.75 472.96-22.1Q472.56-22.15 471.86-22.15L471.86-22.15Q467.96-22.15 465.73-19.83 463.51-17.5 463.51-13.2L463.51-13.2 463.51 0 458.71 0 458.71-26.5 463.31-26.5 463.31-22.05ZM488.45-26.75Q493.95-26.75 496.88-24.05 499.8-21.35 499.8-16L499.8-16 499.8 0 495.25 0 495.25-3.5Q494.05-1.65 491.83-0.68 489.6 0.3 486.55 0.3L486.55 0.3Q482.1 0.3 479.43-1.85 476.75-4 476.75-7.5L476.75-7.5Q476.75-11 479.3-13.13 481.85-15.25 487.4-15.25L487.4-15.25 495-15.25 495-16.2Q495-19.3 493.2-20.95 491.4-22.6 487.9-22.6L487.9-22.6Q485.55-22.6 483.3-21.83 481.05-21.05 479.5-19.75L479.5-19.75 477.5-23.35Q479.55-25 482.4-25.88 485.25-26.75 488.45-26.75L488.45-26.75ZM487.35-3.4Q490.1-3.4 492.1-4.63 494.1-5.85 495-8.1L495-8.1 495-11.8 487.6-11.8Q481.5-11.8 481.5-7.7L481.5-7.7Q481.5-5.7 483.05-4.55 484.6-3.4 487.35-3.4L487.35-3.4ZM522.1-5L523.6-1.55Q522.55-0.65 521-0.18 519.45 0.3 517.8 0.3L517.8 0.3Q513.8 0.3 511.6-1.85 509.4-4 509.4-8L509.4-8 509.4-22.55 504.9-22.55 504.9-26.5 509.4-26.5 509.4-32.3 514.2-32.3 514.2-26.5 521.8-26.5 521.8-22.55 514.2-22.55 514.2-8.2Q514.2-6.05 515.28-4.9 516.35-3.75 518.35-3.75L518.35-3.75Q520.55-3.75 522.1-5L522.1-5ZM529.4 0L529.4-26.5 534.2-26.5 534.2 0 529.4 0ZM531.8-31.6Q530.4-31.6 529.47-32.5 528.55-33.4 528.55-34.7L528.55-34.7Q528.55-36 529.47-36.93 530.4-37.85 531.8-37.85L531.8-37.85Q533.2-37.85 534.12-36.98 535.05-36.1 535.05-34.8L535.05-34.8Q535.05-33.45 534.12-32.52 533.2-31.6 531.8-31.6L531.8-31.6ZM554.7 0.3Q550.75 0.3 547.6-1.45 544.45-3.2 542.67-6.28 540.9-9.35 540.9-13.25L540.9-13.25Q540.9-17.15 542.67-20.23 544.45-23.3 547.6-25.03 550.75-26.75 554.7-26.75L554.7-26.75Q558.65-26.75 561.77-25.03 564.9-23.3 566.67-20.23 568.45-17.15 568.45-13.25L568.45-13.25Q568.45-9.35 566.67-6.28 564.9-3.2 561.77-1.45 558.65 0.3 554.7 0.3L554.7 0.3ZM554.7-3.9Q557.25-3.9 559.27-5.08 561.3-6.25 562.45-8.38 563.6-10.5 563.6-13.25L563.6-13.25Q563.6-16 562.45-18.13 561.3-20.25 559.27-21.4 557.25-22.55 554.7-22.55L554.7-22.55Q552.15-22.55 550.12-21.4 548.1-20.25 546.92-18.13 545.75-16 545.75-13.25L545.75-13.25Q545.75-10.5 546.92-8.38 548.1-6.25 550.12-5.08 552.15-3.9 554.7-3.9L554.7-3.9ZM589.24-26.75Q594.29-26.75 597.27-23.83 600.24-20.9 600.24-15.25L600.24-15.25 600.24 0 595.44 0 595.44-14.7Q595.44-18.55 593.59-20.5 591.74-22.45 588.29-22.45L588.29-22.45Q584.39-22.45 582.14-20.18 579.89-17.9 579.89-13.65L579.89-13.65 579.89 0 575.09 0 575.09-26.5 579.69-26.5 579.69-22.5Q581.14-24.55 583.62-25.65 586.09-26.75 589.24-26.75L589.24-26.75ZM616.74 0.3Q613.49 0.3 610.49-0.58 607.49-1.45 605.79-2.8L605.79-2.8 607.79-6.6Q609.54-5.35 612.04-4.6 614.54-3.85 617.09-3.85L617.09-3.85Q623.39-3.85 623.39-7.45L623.39-7.45Q623.39-8.65 622.54-9.35 621.69-10.05 620.41-10.38 619.14-10.7 616.79-11.1L616.79-11.1Q613.59-11.6 611.56-12.25 609.54-12.9 608.09-14.45 606.64-16 606.64-18.8L606.64-18.8Q606.64-22.4 609.64-24.58 612.64-26.75 617.69-26.75L617.69-26.75Q620.34-26.75 622.99-26.1 625.64-25.45 627.34-24.35L627.34-24.35 625.29-20.55Q622.04-22.65 617.64-22.65L617.64-22.65Q614.59-22.65 612.99-21.65 611.39-20.65 611.39-19L611.39-19Q611.39-17.7 612.29-16.95 613.19-16.2 614.51-15.85 615.84-15.5 618.24-15.05L618.24-15.05Q621.44-14.5 623.41-13.88 625.39-13.25 626.79-11.75 628.19-10.25 628.19-7.55L628.19-7.55Q628.19-3.95 625.11-1.83 622.04 0.3 616.74 0.3L616.74 0.3Z" opacity="1" transform="matrix(1,0,0,1,0,0)" fill="#ffffff" class="undefined-text-1" data-fill-palette-color="secondary" id="text-1"></path></svg></g></svg></g></svg></g></svg></g><g transform="matrix(1,0,0,1,414.7776037979945,0)"><svg viewBox="0 0 163.9969706422858 163.9969706422858" height="163.9969706422858" width="163.9969706422858"><g data-palette-color="#c8c8c8"><rect width="44.82583864222479" height="163.9969706422858" fill="#ffffff" stroke="transparent" data-fill-palette-color="accent" x="0" fill-opacity="1"></rect><rect width="44.82583864222479" height="163.9969706422858" fill="#ffffff" stroke="transparent" data-fill-palette-color="accent" x="54.66565688076194" fill-opacity="0.75"></rect><rect width="44.82583864222479" height="163.9969706422858" fill="#ffffff" stroke="transparent" data-fill-palette-color="accent" x="109.33131376152387" fill-opacity="0.5"></rect></g></svg></g></svg></g></svg><rect width="395.52" height="112.07140861563495" fill="none" stroke="none" visibility="hidden"></rect></g></svg></g></svg>